<svg xmlns="http://www.w3.org/2000/svg" xmlns:xlink="http://www.w3.org/1999/xlink" version="1.1" x="0px" y="0px" viewBox="0 0 100 125" enable-background="new 0 0 100 100" xml:space="preserve"><g><g><path d="M50,3C24.084,3,3,24.084,3,50s21.084,47,47,47s47-21.084,47-47S75.916,3,50,3z M50,93C26.29,93,7,73.71,7,50S26.29,7,50,7    s43,19.29,43,43S73.71,93,50,93z M46.527,54.476c4.746,0,8.596-4.49,8.596-10.027c0-5.538-3.85-10.027-8.596-10.027    c-4.748,0-8.596,4.489-8.596,10.027C37.932,49.985,41.779,54.476,46.527,54.476z M62.352,64.075    c-2.199-1.533-8.391-5.049-15.66-5.091v-0.005c-0.022,0-0.043,0.003-0.066,0.003c-0.021,0-0.043-0.003-0.064-0.003v0.005    c-7.27,0.042-13.462,3.558-15.66,5.091c-0.301,0.21-0.518,0.385-0.734,0.863C29.992,65.329,30,66.126,30,66.126V72.3h33.253    v-6.174c0,0,0.009-0.797-0.169-1.188C62.869,64.46,62.652,64.285,62.352,64.075z M70.262,27.7h-2.925v7.738H59.6v2.924h7.737    v7.738h2.925v-7.738H78v-2.924h-7.738V27.7z"/></g></g><text x="0" y="115" fill="#000000" font-size="5px" font-weight="bold" font-family="'Helvetica Neue', Helvetica, Arial-Unicode, Arial, Sans-serif">Created by Chunk Icons</text><text x="0" y="120" fill="#000000" font-size="5px" font-weight="bold" font-family="'Helvetica Neue', Helvetica, Arial-Unicode, Arial, Sans-serif">from the Noun Project</text></svg>